<svg xmlns="http://www.w3.org/2000/svg" viewBox="0 0 100 100">
  <circle cx="50" cy="50" r="50" fill="#0F4C5C"/>
  <path d="M50 50 L50 0 A50 50 0 0 1 93.3 25 Z" fill="#E29578"/>
  <path d="M50 50 L93.3 25 A50 50 0 0 1 93.3 75 Z" fill="#FFFFFF" fill-opacity="0.5"/>
  <path d="M50 50 L93.3 75 A50 50 0 0 1 50 100 Z" fill="#3E7B7D"/>
  <path d="M50 50 L50 100 A50 50 0 0 1 6.7 75 Z" fill="#0F4C5C"/>
  <path d="M50 50 L6.7 75 A50 50 0 0 1 6.7 25 Z" fill="#5F9EA0"/>
  <path d="M50 50 L6.7 25 A50 50 0 0 1 50 0 Z" fill="#E29578"/>
</svg>